<?xml version="1.0" standalone="no"?><!DOCTYPE svg PUBLIC "-//W3C//DTD SVG 1.1//EN" "http://www.w3.org/Graphics/SVG/1.1/DTD/svg11.dtd"><svg t="1773985814032" class="icon" viewBox="0 0 1097 1024" version="1.1" xmlns="http://www.w3.org/2000/svg" p-id="10712" width="107.12890625" height="100" xmlns:xlink="http://www.w3.org/1999/xlink"><path d="M184.908069 0l63.414857 705.097143a110.445714 110.445714 0 0 0 109.202285 101.449143c2.56 0 4.973714 0.292571 7.314286 0.731428a109.348571 109.348571 0 0 1 75.922286 0.512l2.121143-0.658285 6.582857-0.585143h356.717714a107.885714 107.885714 0 0 1 86.528 7.314285 35.620571 35.620571 0 0 1 21.577143-7.314285c57.051429 0 103.862857-44.251429 109.202286-100.864L1024.002926 694.930286V277.650286c0-58.075429-43.52-105.764571-99.181715-111.177143L914.28864 166.034286H415.746926a36.864 36.864 0 0 1-36.571429-37.156572c0-18.285714 12.946286-33.499429 29.988572-36.571428l6.582857-0.731429H914.28864c96.914286 0 176.274286 76.8 182.491429 173.860572l0.365714 12.288V694.857143c0 91.867429-65.462857 168.228571-151.552 183.369143 3.437714 10.605714 5.266286 22.162286 5.266286 34.084571 0 61.659429-49.152 111.616-109.714286 111.616s-109.714286-49.956571-109.714286-111.616c0-10.971429 1.536-21.430857 4.388572-31.451428H507.614354c2.852571 10.020571 4.388571 20.48 4.388572 31.451428C512.002926 974.043429 462.850926 1024 402.28864 1024S292.574354 974.043429 292.574354 912.384c0-14.482286 2.706286-28.233143 7.606857-40.96a185.124571 185.124571 0 0 1-124.708571-159.524571l-57.344-637.44H36.574354a36.864 36.864 0 0 1-36.571428-37.302858C0.002926 16.749714 16.386926 0 36.574354 0h148.333715zM841.145783 875.154286c-20.187429 0-36.571429 16.676571-36.571429 37.229714 0 20.48 16.384 37.156571 36.571429 37.156571s36.571429-16.603429 36.571428-37.156571a36.864 36.864 0 0 0-36.571428-37.229714z m-438.857143 0c-20.187429 0-36.571429 16.676571-36.571429 37.229714 0 20.48 16.384 37.156571 36.571429 37.156571s36.571429-16.603429 36.571429-37.156571a36.864 36.864 0 0 0-36.571429-37.229714z m302.811429-643.145143l-6.802286 25.161143h106.788571c33.645714 0 57.051429 6.582857 70.656 19.968a41.179429 41.179429 0 0 1 13.385143 30.866285 51.492571 51.492571 0 0 1-6.875428 25.965715l-12.507429 21.430857a50.468571 50.468571 0 0 1 25.673143 13.458286 46.884571 46.884571 0 0 1 14.043428 32.914285v135.972572h11.702858v52.809143h-130.267429c10.971429 23.625143 24.283429 40.521143 39.643429 50.614857 22.162286 14.482286 52.297143 24.868571 90.624 31.451428v47.981715c-46.518857-4.242286-83.821714-13.531429-111.981715-28.013715-19.456-9.947429-37.302857-25.819429-53.76-47.762285-20.187429 24.429714-40.228571 41.252571-59.977143 50.614857-27.428571 12.946286-63.341714 21.284571-107.739428 25.161143v-48.054858c48.420571-6.802286 82.797714-18.797714 103.131428-35.986285 13.165714-10.971429 23.186286-26.331429 29.988572-46.006857H588.583497v-52.809143h12.580572V406.601143c0-34.157714 19.017143-51.2 57.124571-51.2h147.748571l18.505143-25.088c3.291429-4.388571 4.900571-7.826286 4.900572-10.313143 0-6.656-5.266286-10.020571-15.725715-10.020571H673.429211c-12.214857 15.067429-24.137143 25.819429-35.693714 32.329142a130.194286 130.194286 0 0 1-45.421714 13.165715v-53.467429c14.848-2.706286 25.673143-7.460571 32.548571-14.262857 9.728-9.947429 18.285714-28.525714 25.746286-55.734857h54.564571z m-186.806858 1.682286v56.612571h56.027429v55.442286h-56.027429v93.622857c21.723429-10.386286 40.96-17.773714 57.709715-21.942857v54.272a312.32 312.32 0 0 0-57.782857 28.013714v127.414857c0 28.013714-3.803429 47.762286-11.702858 59.172572a74.678857 74.678857 0 0 1-35.401142 27.721142c-6.582857 2.486857-17.554286 3.657143-32.548572 3.657143h-23.990857v-51.931428h16.018286c10.093714 0 17.042286-1.682286 20.845714-4.900572a48.420571 48.420571 0 0 0 10.24-12.288c2.706286-4.534857 4.022857-15.36 4.022857-32.548571V532.845714a400.310857 400.310857 0 0 1-38.546286 13.165715c-5.851429 1.316571-16.969143 2.925714-33.133714 4.827428v-55.149714a175.542857 175.542857 0 0 0 34.523429-6.802286 256.731429 256.731429 0 0 0 37.156571-17.188571V345.746286h-71.68v-55.442286h71.68v-56.612571h52.589714zM726.604069 407.405714h-32.036572c-22.089143 0-34.450286 2.413714-37.156571 7.168a29.549714 29.549714 0 0 0-3.437715 14.848v108.251429h72.630858v-130.194286z m102.838857 0h-45.421715v130.340572h72.850286V432.859429c0-10.678857-1.755429-17.554286-5.12-20.845715-3.291429-3.072-10.678857-4.608-22.308571-4.608z" fill="#ffbf6a" p-id="10713"></path></svg>