<svg width="900" height="220" viewBox="0 0 900 220" fill="none" xmlns="http://www.w3.org/2000/svg">
  <defs>
    <linearGradient id="textGradient" x1="180" y1="40" x2="780" y2="180" gradientUnits="userSpaceOnUse">
      <stop offset="0" stop-color="#FFFFFF" />
      <stop offset="0.45" stop-color="#E6F4FF" />
      <stop offset="1" stop-color="#FFFFFF" />
    </linearGradient>
    <linearGradient id="accentGradient" x1="120" y1="40" x2="120" y2="180" gradientUnits="userSpaceOnUse">
      <stop offset="0" stop-color="#00C2FF" />
      <stop offset="1" stop-color="#67C23A" />
    </linearGradient>
    <filter id="shadow" x="-20%" y="-20%" width="140%" height="140%">
      <feDropShadow dx="0" dy="6" stdDeviation="10" flood-color="#000000" flood-opacity="0.35" />
    </filter>
    <filter id="softGlow" x="-20%" y="-20%" width="140%" height="140%">
      <feDropShadow dx="0" dy="0" stdDeviation="10" flood-color="#00C2FF" flood-opacity="0.18" />
    </filter>
  </defs>

  <g filter="url(#shadow)">
    <g filter="url(#softGlow)">
      <circle cx="125" cy="110" r="54" fill="none" stroke="url(#accentGradient)" stroke-width="10" opacity="0.9" />
      <circle cx="125" cy="110" r="34" fill="none" stroke="#FFFFFF" stroke-width="4" opacity="0.55" stroke-dasharray="6 8" />
      <path
        d="M112 96C123 84 145 84 156 96"
        fill="none"
        stroke="#FFFFFF"
        stroke-width="6"
        stroke-linecap="round"
        opacity="0.9"
      />
      <path
        d="M156 124C145 136 123 136 112 124"
        fill="none"
        stroke="#FFFFFF"
        stroke-width="6"
        stroke-linecap="round"
        opacity="0.9"
      />
      <path
        d="M160 100L156 96L152 100"
        fill="none"
        stroke="#FFFFFF"
        stroke-width="6"
        stroke-linecap="round"
        stroke-linejoin="round"
        opacity="0.9"
      />
      <path
        d="M108 120L112 124L116 120"
        fill="none"
        stroke="#FFFFFF"
        stroke-width="6"
        stroke-linecap="round"
        stroke-linejoin="round"
        opacity="0.9"
      />
    </g>

    <path
      d="M210 154C280 120 340 120 410 154C480 188 540 188 610 154C680 120 740 120 810 154"
      fill="none"
      stroke="#FFFFFF"
      stroke-width="3"
      opacity="0.18"
      stroke-linecap="round"
    />
    <path
      d="M230 170C295 140 345 140 410 170C475 200 525 200 590 170C655 140 705 140 770 170"
      fill="none"
      stroke="#00C2FF"
      stroke-width="2"
      opacity="0.14"
      stroke-linecap="round"
    />

    <text
      x="210"
      y="128"
      font-family="Microsoft YaHei, PingFang SC, Noto Sans SC, Arial, sans-serif"
      font-size="68"
      font-weight="800"
      fill="url(#textGradient)"
      letter-spacing="1"
    >
      邻享换物·闲置流转
    </text>
  </g>
</svg>
